<svg xmlns="http://www.w3.org/2000/svg" xmlns:xlink="http://www.w3.org/1999/xlink" width="227.904" height="45" viewBox="0 0 227.904 45">
  <defs>
    <clipPath id="clip-path">
      <rect id="Rectangle_132" data-name="Rectangle 132" width="44" height="12" fill="#88cde3"/>
    </clipPath>
    <clipPath id="clip-path-2">
      <rect id="Rectangle_133" data-name="Rectangle 133" width="44" height="12" transform="translate(0 0.018)" fill="#7fc8e2"/>
    </clipPath>
    <clipPath id="clip-path-3">
      <rect id="Rectangle_134" data-name="Rectangle 134" width="44" height="12" transform="translate(0 -0.043)" fill="#70c2e2"/>
    </clipPath>
    <clipPath id="clip-path-4">
      <rect id="Rectangle_135" data-name="Rectangle 135" width="44" height="10" transform="translate(0 0.436)" fill="#62bae2"/>
    </clipPath>
  </defs>
  <g id="Group_157" data-name="Group 157" transform="translate(-579 -544)">
    <path id="Path_278" data-name="Path 278" d="M7.424-19.68H5.152a3.826,3.826,0,0,0-2.736.9,3.917,3.917,0,0,0-.944,2.944H.512v-2.72q0-2.56,2.72-2.56h15.04v1.44H11.584V0H7.424Zm15.2,20A6.171,6.171,0,0,1,18.608-.848,3.864,3.864,0,0,1,17.184-4a4.466,4.466,0,0,1,.752-2.656,4.712,4.712,0,0,1,2.64-1.6A19.82,19.82,0,0,1,25.824-8.8h.48a7.527,7.527,0,0,0-.768-3.952,2.543,2.543,0,0,0-2.272-1.168,3.29,3.29,0,0,0-2.048.608,3.735,3.735,0,0,0-1.152,2.272H18.3a10.245,10.245,0,0,1,.144-1.856A2.747,2.747,0,0,1,19.1-14.24q.992-1.12,4.8-1.12a6.61,6.61,0,0,1,4.88,1.68,6.845,6.845,0,0,1,1.68,5.04V0h-2.72l-1.12-1.44h-.16a3.548,3.548,0,0,1-.9.9A4.606,4.606,0,0,1,22.624.32Zm.96-1.6a2.3,2.3,0,0,0,1.152-.272,3.94,3.94,0,0,0,.928-.752A3.115,3.115,0,0,0,26.3-3.36v-4h-.48a5.3,5.3,0,0,0-3.3.816A3.057,3.057,0,0,0,21.5-4a3.24,3.24,0,0,0,.544,2.016A1.828,1.828,0,0,0,23.584-1.28ZM39.456.32Q35.712.32,34.3-.992a2.237,2.237,0,0,1-.64-1.36A18.017,18.017,0,0,1,33.536-4.8h1.12a4.775,4.775,0,0,0,1.312,2.672A3.885,3.885,0,0,0,38.816-1.12q3.2,0,3.2-2.176a1.683,1.683,0,0,0-.688-1.376,10.838,10.838,0,0,0-2.192-1.216l-1.664-.7A9.657,9.657,0,0,1,34.4-8.544a3.542,3.542,0,0,1-1.024-2.56,3.562,3.562,0,0,1,1.68-3.136,7.8,7.8,0,0,1,4.4-1.12q3.744,0,5.152,1.312a2.221,2.221,0,0,1,.64,1.344,17.957,17.957,0,0,1,.128,2.464h-1.12a4.775,4.775,0,0,0-1.312-2.672A3.885,3.885,0,0,0,40.1-13.92a3.029,3.029,0,0,0-2.048.592,2.006,2.006,0,0,0-.672,1.584,1.748,1.748,0,0,0,.56,1.328,6.194,6.194,0,0,0,1.712,1.04l1.92.8a11.235,11.235,0,0,1,3.408,2,3.511,3.511,0,0,1,1.04,2.64A3.494,3.494,0,0,1,44.208-.784,9.031,9.031,0,0,1,39.456.32Zm21.568,0a5.615,5.615,0,0,1-2.576-.592A6.439,6.439,0,0,1,56.256-2.24L53.184-6.272V0h-4.16V-16.96a5.032,5.032,0,0,0-.448-2.416,1.885,1.885,0,0,0-1.792-.784h-.32v-.96H50.3a3.315,3.315,0,0,1,1.76.384,2.117,2.117,0,0,1,.864,1.264,9.479,9.479,0,0,1,.256,2.512v9.12l3.872-4.736A8.5,8.5,0,0,1,59.1-14.464a4.946,4.946,0,0,1,2.56-.576h.64v.832a3.81,3.81,0,0,0-1.728.384A4.751,4.751,0,0,0,59.1-12.608L56-8.832,60.256-3.2A5.816,5.816,0,0,0,63.232-.768V0a3.451,3.451,0,0,1-.944.224A9.2,9.2,0,0,1,61.024.32Z" transform="translate(644 577)" fill="#62bae2"/>
    <path id="Path_279" data-name="Path 279" d="M-72.224,1.44q-3.456,0-4.976-1.616T-78.72-5.44V-16.768L-85.728,0h-1.056L-95.36-17.408V0h-1.6V-21.12h3.9l7.744,15.712,6.56-15.712h4.192V-5.44a13.931,13.931,0,0,0,.512,4.416A2.364,2.364,0,0,0-72.224.64ZM-65.472.32A6.171,6.171,0,0,1-69.488-.848,3.864,3.864,0,0,1-70.912-4a4.466,4.466,0,0,1,.752-2.656,4.712,4.712,0,0,1,2.64-1.6A19.82,19.82,0,0,1-62.272-8.8h.48a7.527,7.527,0,0,0-.768-3.952,2.543,2.543,0,0,0-2.272-1.168,3.29,3.29,0,0,0-2.048.608,3.735,3.735,0,0,0-1.152,2.272h-1.76a10.245,10.245,0,0,1,.144-1.856,2.747,2.747,0,0,1,.656-1.344q.992-1.12,4.8-1.12a6.61,6.61,0,0,1,4.88,1.68,6.845,6.845,0,0,1,1.68,5.04V0h-2.72l-1.12-1.44h-.16a3.548,3.548,0,0,1-.9.9A4.606,4.606,0,0,1-65.472.32Zm.96-1.6a2.3,2.3,0,0,0,1.152-.272,3.94,3.94,0,0,0,.928-.752,3.115,3.115,0,0,0,.64-1.056v-4h-.48a5.3,5.3,0,0,0-3.3.816A3.057,3.057,0,0,0-66.592-4a3.24,3.24,0,0,0,.544,2.016A1.828,1.828,0,0,0-64.512-1.28ZM-48.64.32q-3.744,0-5.152-1.312a2.237,2.237,0,0,1-.64-1.36A18.017,18.017,0,0,1-54.56-4.8h1.12a4.775,4.775,0,0,0,1.312,2.672A3.885,3.885,0,0,0-49.28-1.12q3.2,0,3.2-2.176a1.683,1.683,0,0,0-.688-1.376A10.838,10.838,0,0,0-48.96-5.888l-1.664-.7A9.657,9.657,0,0,1-53.7-8.544,3.542,3.542,0,0,1-54.72-11.1a3.562,3.562,0,0,1,1.68-3.136,7.8,7.8,0,0,1,4.4-1.12q3.744,0,5.152,1.312a2.221,2.221,0,0,1,.64,1.344,17.957,17.957,0,0,1,.128,2.464h-1.12a4.775,4.775,0,0,0-1.312-2.672A3.885,3.885,0,0,0-48-13.92a3.029,3.029,0,0,0-2.048.592,2.006,2.006,0,0,0-.672,1.584,1.748,1.748,0,0,0,.56,1.328,6.194,6.194,0,0,0,1.712,1.04l1.92.8a11.235,11.235,0,0,1,3.408,2,3.511,3.511,0,0,1,1.04,2.64A3.494,3.494,0,0,1-43.888-.784,9.031,9.031,0,0,1-48.64.32Zm14.88,0a4.666,4.666,0,0,1-3.424-1.2A4.664,4.664,0,0,1-38.4-4.352V-13.6h-1.92v-1.44h1.92v-2.88l1.6-1.92h2.56v4.8h3.52v1.44h-3.52v9.44a4.806,4.806,0,0,0,.416,2.384,1.38,1.38,0,0,0,1.248.656,4.224,4.224,0,0,0,1.792-.416q.352-.192.736-.448l.448.9a7.978,7.978,0,0,1-.992.7A6.738,6.738,0,0,1-33.76.32Zm12.64,0A7.237,7.237,0,0,1-24.992-.7a6.944,6.944,0,0,1-2.576-2.8A8.664,8.664,0,0,1-28.48-7.52a9.155,9.155,0,0,1,.912-4.256,6.347,6.347,0,0,1,2.512-2.672,7.171,7.171,0,0,1,3.616-.912,7.9,7.9,0,0,1,3.584.8A6.243,6.243,0,0,1-15.328-12.3,6.087,6.087,0,0,1-14.4-8.96q0,.608-.064,1.376l-.064.64H-24.16a8.188,8.188,0,0,0,.928,4.432A2.946,2.946,0,0,0-20.64-1.12a4.57,4.57,0,0,0,2.576-.688,8.261,8.261,0,0,0,2-1.968l.992.736a8.433,8.433,0,0,1-2.32,2.4A6.459,6.459,0,0,1-21.12.32Zm2.4-8.7a9.383,9.383,0,0,0-.7-4.272A2.2,2.2,0,0,0-21.44-13.92a2.234,2.234,0,0,0-1.968,1.3,8.883,8.883,0,0,0-.752,4.24ZM-1.184-14.72a2.651,2.651,0,0,1,.832.912A4.917,4.917,0,0,1-.1-13.28l-1.632,1.248A4.933,4.933,0,0,0-2.3-12.64a2.352,2.352,0,0,0-1.632-.64,3.855,3.855,0,0,0-2.848.992l.064.48a9.622,9.622,0,0,1,.064,1.056V0h-4.16V-10.88a5.192,5.192,0,0,0-.432-2.416,1.845,1.845,0,0,0-1.776-.784h-.32v-.96h3.168a4.381,4.381,0,0,1,1.712.272,2.019,2.019,0,0,1,.976.912,5.951,5.951,0,0,1,4.032-1.5A3.813,3.813,0,0,1-1.184-14.72Z" transform="translate(807 577)" fill="#161d6f"/>
    <g id="Group_156" data-name="Group 156" transform="translate(579 544)">
      <g id="Group_155" data-name="Group 155" transform="translate(0 0)">
        <g id="Mask_Group_4" data-name="Mask Group 4" clip-path="url(#clip-path)" style="isolation: isolate">
          <path id="Path_277" data-name="Path 277" d="M8.725,0H35.156a8.725,8.725,0,0,1,8.725,8.725V35.669a8.725,8.725,0,0,1-8.725,8.725H8.725A8.725,8.725,0,0,1,0,35.669V8.725A8.725,8.725,0,0,1,8.725,0Z" transform="translate(0 0.257)" fill="#88cde3"/>
        </g>
        <g id="Mask_Group_5" data-name="Mask Group 5" transform="translate(0 11.982)" clip-path="url(#clip-path-2)">
          <path id="Path_276" data-name="Path 276" d="M8.725,0H35.156a8.725,8.725,0,0,1,8.725,8.725V35.669a8.725,8.725,0,0,1-8.725,8.725H8.725A8.725,8.725,0,0,1,0,35.669V8.725A8.725,8.725,0,0,1,8.725,0Z" transform="translate(0 -11.726)" fill="#7fc8e2"/>
        </g>
        <g id="Mask_Group_6" data-name="Mask Group 6" transform="translate(0 23.043)" clip-path="url(#clip-path-3)" style="isolation: isolate">
          <path id="Path_275" data-name="Path 275" d="M8.725,0H35.156a8.725,8.725,0,0,1,8.725,8.725V35.669a8.725,8.725,0,0,1-8.725,8.725H8.725A8.725,8.725,0,0,1,0,35.669V8.725A8.725,8.725,0,0,1,8.725,0Z" transform="translate(0 -22.786)" fill="#70c2e2"/>
        </g>
        <g id="Mask_Group_7" data-name="Mask Group 7" transform="translate(0 34.564)" clip-path="url(#clip-path-4)" style="isolation: isolate">
          <path id="Path_274" data-name="Path 274" d="M8.725,0H35.156a8.725,8.725,0,0,1,8.725,8.725V35.669a8.725,8.725,0,0,1-8.725,8.725H8.725A8.725,8.725,0,0,1,0,35.669V8.725A8.725,8.725,0,0,1,8.725,0Z" transform="translate(0 -34.308)" fill="#62bae2"/>
        </g>
        <circle id="Ellipse_93" data-name="Ellipse 93" cx="2.5" cy="2.5" r="2.5" transform="translate(28 27)" fill="#fff"/>
      </g>
      <path id="verified_24dp_E8EAED_FILL0_wght400_GRAD0_opsz24" d="M308.8-618.322Zm-2.518,8.512,14.957-15.216-3.357-3.477-11.6,11.48-4.544-4.545-3.357,3.736Z" transform="translate(-288.025 641.63)" fill="#fff"/>
    </g>
  </g>
</svg>
